<svg width="247" height="30" viewBox="0 0 247 30" fill="none" xmlns="http://www.w3.org/2000/svg">
<g clip-path="url(#clip0)">
<path d="M22.3756 3.09717L21.1697 7.98538H13.5239L8.43821 28.9584H2.56157L7.64727 7.98538H0L1.20589 3.09717H22.3756Z" fill="url(#paint0_linear)"/>
<path d="M32.0571 14.1064C31.5538 13.9818 31.0594 13.8645 30.5696 13.7517C30.0798 13.639 29.3577 13.584 28.4035 13.584C28.0515 13.584 27.662 13.6152 27.2351 13.6775C26.8081 13.7399 26.4561 13.8081 26.1805 13.8823L22.5269 28.958H16.9139L21.4348 10.3742C22.5149 10.0255 23.7268 9.69604 25.0705 9.38589C26.4142 9.07574 27.9271 8.91992 29.6094 8.91992C30.237 8.91992 30.9336 8.97631 31.7006 9.08761C32.4661 9.19891 33.1387 9.37995 33.7154 9.62926L32.0571 14.1064Z" fill="url(#paint1_linear)"/>
<path d="M50.9304 20.4875C50.5783 21.9062 50.478 23.3293 50.6293 24.7598C50.7806 26.1904 51.0682 27.4651 51.4951 28.5855L46.4843 29.2949C46.333 28.9966 46.1952 28.7102 46.0694 28.4371C45.9435 28.1641 45.8177 27.8524 45.6934 27.5037C44.9893 28.0765 44.2118 28.5484 43.358 28.9224C42.5041 29.2963 41.5499 29.4818 40.4953 29.4818C39.24 29.4818 38.1659 29.2637 37.2746 28.8289C36.3833 28.3941 35.6553 27.8094 35.0905 27.0748C34.5258 26.3418 34.1168 25.4825 33.8667 24.5001C33.615 23.5178 33.4907 22.4656 33.4907 21.3467C33.4907 19.6297 33.7978 18.0137 34.4134 16.4956C35.0291 14.979 35.883 13.6538 36.975 12.5215C38.0671 11.3892 39.3538 10.5003 40.8369 9.85333C42.3184 9.20632 43.9257 8.88281 45.6589 8.88281C45.8851 8.88281 46.2806 8.89617 46.8453 8.91991C47.4101 8.94514 48.0572 9.00153 48.7852 9.0876C49.5133 9.17516 50.2787 9.31762 51.0832 9.51647C51.8861 9.71532 52.6531 9.98986 53.3811 10.3371L50.9304 20.4875ZM47.0116 13.6211C46.685 13.5722 46.3899 13.5336 46.1263 13.5098C45.8626 13.4846 45.5421 13.4727 45.1661 13.4727C44.3122 13.4727 43.5138 13.6849 42.7738 14.1079C42.0323 14.5308 41.3866 15.0843 40.8339 15.7684C40.2811 16.4526 39.8482 17.242 39.5336 18.1384C39.219 19.0347 39.0632 19.9666 39.0632 20.9371C39.0632 22.1317 39.264 23.077 39.6654 23.773C40.0669 24.4705 40.8084 24.8177 41.8885 24.8177C42.4652 24.8177 42.9865 24.7064 43.4524 24.4823C43.9167 24.2583 44.4126 23.8858 44.9399 23.3634C44.9893 22.7416 45.0717 22.0887 45.184 21.4046C45.2964 20.7205 45.4162 20.0927 45.5421 19.5199L47.0116 13.6211Z" fill="url(#paint2_linear)"/>
<path d="M59.4435 28.9582C58.7903 26.471 58.2001 23.5654 57.6728 20.2443C57.1455 16.9231 56.7815 13.2844 56.5808 9.32816H62.3825C62.408 10.2987 62.4454 11.3627 62.4949 12.5187C62.5443 13.6762 62.6072 14.8382 62.6836 16.0075C62.7585 17.1769 62.8469 18.3151 62.9473 19.4221C63.0476 20.5292 63.16 21.5309 63.2858 22.4257C63.8386 21.6793 64.4587 20.7592 65.1508 19.664C65.8414 18.5689 66.5125 17.4247 67.1656 16.2301C67.8187 15.0355 68.4209 13.8365 68.9737 12.6285C69.5265 11.422 69.9534 10.3209 70.2545 9.3252H76.206C75.5529 11.0926 74.7425 12.9075 73.7763 14.7729C72.8086 16.6382 71.7735 18.4427 70.6679 20.1834C69.5624 21.9256 68.4389 23.555 67.2959 25.0716C66.153 26.5897 65.0924 27.8838 64.1127 28.9522H59.4435V28.9582Z" fill="url(#paint3_linear)"/>
<path d="M76.206 21.271C76.206 19.6787 76.4891 18.1369 77.0539 16.644C77.6186 15.1511 78.4156 13.8259 79.4462 12.6699C80.4753 11.5124 81.7246 10.5805 83.1942 9.87114C84.6637 9.1618 86.289 8.80713 88.0731 8.80713C88.9525 8.80713 89.7689 8.93178 90.5224 9.17961C91.2759 9.42891 91.935 9.78952 92.4997 10.2614C93.0645 10.7348 93.5034 11.3121 93.818 11.9962C94.131 12.6803 94.2883 13.4579 94.2883 14.329C94.2883 15.7224 93.9738 16.9037 93.3461 17.8742C92.7184 18.8447 91.8451 19.6342 90.7276 20.2441C89.6101 20.854 88.2844 21.2948 86.7534 21.5693C85.221 21.8438 83.5522 21.9804 81.7426 21.9804C81.9179 23.0251 82.3014 23.7656 82.8916 24.2004C83.4818 24.6367 84.4165 24.8533 85.6973 24.8533C86.5003 24.8533 87.3167 24.7851 88.1466 24.6485C88.9749 24.512 89.7539 24.3072 90.4819 24.0327L90.8969 28.3985C90.1928 28.6731 89.2955 28.9209 88.2035 29.145C87.1114 29.3691 85.925 29.4804 84.6442 29.4804C83.0863 29.4804 81.7756 29.2622 80.7075 28.8274C79.6394 28.3926 78.7736 27.8005 78.1085 27.0541C77.4434 26.3076 76.9595 25.4365 76.6584 24.4423C76.3573 23.448 76.206 22.3899 76.206 21.271ZM87.1684 13.2101C85.8876 13.2101 84.7641 13.6642 83.7964 14.5724C82.8287 15.4806 82.195 16.6811 81.8939 18.174C83.4503 18.125 84.7057 17.9944 85.6614 17.7822C86.6156 17.5715 87.3571 17.3162 87.8844 17.0165C88.4117 16.7182 88.7637 16.3947 88.939 16.0459C89.1143 15.6972 89.2026 15.35 89.2026 15.0012C89.2026 13.8066 88.524 13.2101 87.1684 13.2101Z" fill="url(#paint4_linear)"/>
<path d="M103.252 29.3307C101.468 29.3307 100.069 29.1007 99.052 28.6407C98.0348 28.1806 97.3068 27.5529 96.8679 26.756C96.4275 25.9606 96.2148 25.0465 96.2268 24.0137C96.2387 22.9808 96.384 21.8812 96.6597 20.7118L101.444 0.89632L107.283 0L102.048 21.4954C101.948 21.9435 101.891 22.3531 101.879 22.727C101.865 23.0995 101.936 23.4305 102.085 23.7154C102.237 24.0018 102.493 24.2318 102.858 24.4054C103.222 24.5805 103.73 24.6918 104.383 24.7408L103.252 29.3307Z" fill="url(#paint5_linear)"/>
<path d="M107.095 28.9584L113.347 3.09717H130.261L129.055 7.91118H118.018L116.7 13.4345H126.456L125.288 18.2485H115.531L112.932 28.9584H107.095Z" fill="white" stroke="url(#paint6_linear)" stroke-miterlimit="10"/>
<path d="M136.779 29.4804C135.447 29.4804 134.292 29.2815 133.314 28.8838C132.336 28.4861 131.524 27.9267 130.884 27.204C130.243 26.4828 129.761 25.631 129.434 24.6471C129.108 23.6647 128.944 22.5755 128.944 21.3823C128.944 19.8895 129.189 18.3966 129.678 16.9037C130.168 15.4108 130.89 14.0678 131.845 12.8732C132.799 11.6786 133.967 10.7037 135.348 9.94387C136.73 9.18556 138.311 8.80566 140.094 8.80566C141.4 8.80566 142.548 9.00452 143.541 9.40222C144.533 9.79993 145.349 10.3609 145.99 11.0821C146.63 11.8033 147.114 12.6551 147.44 13.639C147.767 14.6214 147.93 15.7106 147.93 16.9037C147.93 18.3966 147.692 19.8895 147.214 21.3823C146.736 22.8752 146.034 24.2182 145.105 25.4128C144.175 26.6074 143.014 27.5839 141.62 28.3422C140.226 29.1005 138.613 29.4804 136.779 29.4804ZM139.567 13.5084C138.738 13.5084 138.009 13.7458 137.383 14.2177C136.755 14.6911 136.228 15.2877 135.801 16.0089C135.374 16.7301 135.053 17.5196 134.841 18.3788C134.626 19.2365 134.52 20.0527 134.52 20.8229C134.52 22.0917 134.721 23.0681 135.122 23.7522C135.524 24.4364 136.252 24.7792 137.306 24.7792C138.135 24.7792 138.863 24.5432 139.49 24.0698C140.118 23.5979 140.645 22.9999 141.072 22.2787C141.499 21.5574 141.82 20.768 142.032 19.9088C142.245 19.051 142.353 18.2363 142.353 17.4646C142.353 16.1959 142.152 15.2194 141.751 14.5353C141.349 13.8512 140.621 13.5084 139.567 13.5084Z" fill="white" stroke="url(#paint7_linear)" stroke-miterlimit="10"/>
<path d="M164.579 14.1064C164.075 13.9818 163.581 13.8645 163.091 13.7517C162.601 13.639 161.879 13.584 160.925 13.584C160.573 13.584 160.184 13.6152 159.757 13.6775C159.33 13.7399 158.978 13.8081 158.702 13.8823L155.049 28.958H149.436L153.957 10.3742C155.037 10.0255 156.247 9.69604 157.592 9.38589C158.936 9.07574 160.449 8.91992 162.131 8.91992C162.759 8.91992 163.455 8.97631 164.222 9.08761C164.988 9.19891 165.659 9.37995 166.237 9.62926L164.579 14.1064Z" fill="white" stroke="url(#paint8_linear)" stroke-miterlimit="10"/>
<path d="M184.28 24.0331L183.075 28.9584H165.671L171.923 3.09717H177.8L172.714 24.0316H184.28V24.0331Z" fill="url(#paint9_linear)"/>
<path d="M194.942 29.4804C193.61 29.4804 192.455 29.2815 191.477 28.8838C190.499 28.4861 189.687 27.9267 189.047 27.204C188.406 26.4828 187.924 25.631 187.597 24.6471C187.27 23.6647 187.107 22.5755 187.107 21.3823C187.107 19.8895 187.351 18.3966 187.841 16.9037C188.331 15.4108 189.053 14.0678 190.007 12.8732C190.961 11.6786 192.13 10.7037 193.511 9.94387C194.892 9.18556 196.474 8.80566 198.258 8.80566C199.563 8.80566 200.712 9.00452 201.705 9.40222C202.697 9.79993 203.513 10.3609 204.154 11.0821C204.795 11.8033 205.278 12.6551 205.604 13.639C205.931 14.6214 206.094 15.7106 206.094 16.9037C206.094 18.3966 205.855 19.8895 205.378 21.3823C204.9 22.8752 204.198 24.2182 203.269 25.4128C202.34 26.6074 201.178 27.5839 199.785 28.3422C198.389 29.1005 196.774 29.4804 194.942 29.4804ZM197.729 13.5084C196.901 13.5084 196.172 13.7458 195.544 14.2177C194.916 14.6911 194.389 15.2877 193.962 16.0089C193.535 16.7301 193.214 17.5196 193.002 18.3788C192.788 19.2365 192.681 20.0527 192.681 20.8229C192.681 22.0917 192.882 23.0681 193.283 23.7522C193.685 24.4364 194.413 24.7792 195.467 24.7792C196.296 24.7792 197.024 24.5432 197.653 24.0698C198.281 23.5979 198.808 22.9999 199.235 22.2787C199.662 21.5574 199.982 20.768 200.195 19.9088C200.408 19.051 200.516 18.2363 200.516 17.4646C200.516 16.1959 200.315 15.2194 199.914 14.5353C199.512 13.8512 198.784 13.5084 197.729 13.5084Z" fill="url(#paint10_linear)"/>
<path d="M212.157 28.9582C211.503 26.471 210.913 23.5654 210.386 20.2443C209.859 16.9231 209.495 13.2844 209.294 9.32816H215.096C215.121 10.2987 215.159 11.3627 215.208 12.5187C215.257 13.6762 215.32 14.8382 215.397 16.0075C215.472 17.1769 215.56 18.3151 215.66 19.4221C215.761 20.5292 215.873 21.5309 215.999 22.4257C216.552 21.6793 217.172 20.7592 217.864 19.664C218.555 18.5689 219.226 17.4247 219.879 16.2301C220.532 15.0355 221.134 13.8365 221.687 12.6285C222.24 11.422 222.667 10.3209 222.968 9.3252H228.919C228.266 11.0926 227.456 12.9075 226.489 14.7729C225.522 16.6382 224.487 18.4427 223.381 20.1834C222.276 21.9256 221.152 23.555 220.009 25.0716C218.866 26.5897 217.806 27.8838 216.826 28.9522H212.157V28.9582Z" fill="url(#paint11_linear)"/>
<path d="M228.919 21.271C228.919 19.6787 229.202 18.1369 229.767 16.644C230.332 15.1511 231.129 13.8259 232.159 12.6699C233.188 11.5124 234.438 10.5805 235.907 9.87114C237.377 9.1618 239.002 8.80713 240.786 8.80713C241.666 8.80713 242.482 8.93178 243.236 9.17961C243.989 9.42891 244.648 9.78952 245.213 10.2614C245.778 10.7348 246.217 11.3121 246.531 11.9962C246.844 12.6803 247.001 13.4579 247.001 14.329C247.001 15.7224 246.687 16.9037 246.059 17.8742C245.432 18.8447 244.558 19.6342 243.441 20.2441C242.323 20.854 240.998 21.2948 239.467 21.5693C237.934 21.8438 236.264 21.9804 234.456 21.9804C234.631 23.0251 235.015 23.7656 235.605 24.2004C236.195 24.6367 237.13 24.8533 238.412 24.8533C239.215 24.8533 240.031 24.7851 240.86 24.6485C241.688 24.512 242.467 24.3072 243.195 24.0327L243.61 28.3985C242.906 28.6731 242.009 28.9209 240.917 29.145C239.825 29.3691 238.638 29.4804 237.357 29.4804C235.799 29.4804 234.489 29.2622 233.421 28.8274C232.353 28.3926 231.487 27.8005 230.822 27.0541C230.157 26.3076 229.673 25.4365 229.372 24.4423C229.069 23.448 228.919 22.3899 228.919 21.271ZM239.882 13.2101C238.601 13.2101 237.477 13.6642 236.51 14.5724C235.542 15.4806 234.908 16.6811 234.607 18.174C236.164 18.125 237.419 17.9944 238.375 17.7822C239.329 17.5715 240.07 17.3162 240.598 17.0165C241.125 16.7167 241.477 16.3947 241.652 16.0459C241.827 15.6972 241.916 15.35 241.916 15.0012C241.914 13.8066 241.237 13.2101 239.882 13.2101Z" fill="url(#paint12_linear)"/>
</g>
<defs>
<linearGradient id="paint0_linear" x1="0" y1="16.0279" x2="22.376" y2="16.0279" gradientUnits="userSpaceOnUse">
<stop stop-color="#D51C35"/>
<stop offset="0.8019" stop-color="#F63039"/>
<stop offset="1" stop-color="#FF363A"/>
</linearGradient>
<linearGradient id="paint1_linear" x1="16.914" y1="18.9383" x2="33.7147" y2="18.9383" gradientUnits="userSpaceOnUse">
<stop stop-color="#D51C35"/>
<stop offset="0.8019" stop-color="#F63039"/>
<stop offset="1" stop-color="#FF363A"/>
</linearGradient>
<linearGradient id="paint2_linear" x1="33.4888" y1="19.1809" x2="53.3785" y2="19.1809" gradientUnits="userSpaceOnUse">
<stop stop-color="#D51C35"/>
<stop offset="0.8019" stop-color="#F63039"/>
<stop offset="1" stop-color="#FF363A"/>
</linearGradient>
<linearGradient id="paint3_linear" x1="56.5804" y1="19.1437" x2="76.2065" y2="19.1437" gradientUnits="userSpaceOnUse">
<stop stop-color="#D51C35"/>
<stop offset="0.8019" stop-color="#F63039"/>
<stop offset="1" stop-color="#FF363A"/>
</linearGradient>
<linearGradient id="paint4_linear" x1="76.206" y1="19.1436" x2="94.2876" y2="19.1436" gradientUnits="userSpaceOnUse">
<stop stop-color="#D51C35"/>
<stop offset="0.8019" stop-color="#F63039"/>
<stop offset="1" stop-color="#FF363A"/>
</linearGradient>
<linearGradient id="paint5_linear" x1="96.227" y1="14.6657" x2="107.284" y2="14.6657" gradientUnits="userSpaceOnUse">
<stop stop-color="#D51C35"/>
<stop offset="0.8019" stop-color="#F63039"/>
<stop offset="1" stop-color="#FF363A"/>
</linearGradient>
<linearGradient id="paint6_linear" x1="106.43" y1="16.0279" x2="130.932" y2="16.0279" gradientUnits="userSpaceOnUse">
<stop stop-color="#D51C35"/>
<stop offset="0.8019" stop-color="#F63039"/>
<stop offset="1" stop-color="#FF363A"/>
</linearGradient>
<linearGradient id="paint7_linear" x1="128.419" y1="19.1436" x2="148.454" y2="19.1436" gradientUnits="userSpaceOnUse">
<stop stop-color="#D51C35"/>
<stop offset="0.8019" stop-color="#F63039"/>
<stop offset="1" stop-color="#FF363A"/>
</linearGradient>
<linearGradient id="paint8_linear" x1="148.77" y1="18.9383" x2="166.899" y2="18.9383" gradientUnits="userSpaceOnUse">
<stop stop-color="#D51C35"/>
<stop offset="0.8019" stop-color="#F63039"/>
<stop offset="1" stop-color="#FF363A"/>
</linearGradient>
<linearGradient id="paint9_linear" x1="165.671" y1="16.0279" x2="184.28" y2="16.0279" gradientUnits="userSpaceOnUse">
<stop stop-color="#D51C35"/>
<stop offset="0.8019" stop-color="#F63039"/>
<stop offset="1" stop-color="#FF363A"/>
</linearGradient>
<linearGradient id="paint10_linear" x1="187.106" y1="19.1436" x2="206.092" y2="19.1436" gradientUnits="userSpaceOnUse">
<stop stop-color="#D51C35"/>
<stop offset="0.8019" stop-color="#F63039"/>
<stop offset="1" stop-color="#FF363A"/>
</linearGradient>
<linearGradient id="paint11_linear" x1="209.293" y1="19.1437" x2="228.919" y2="19.1437" gradientUnits="userSpaceOnUse">
<stop stop-color="#D51C35"/>
<stop offset="0.8019" stop-color="#F63039"/>
<stop offset="1" stop-color="#FF363A"/>
</linearGradient>
<linearGradient id="paint12_linear" x1="228.919" y1="19.1436" x2="247" y2="19.1436" gradientUnits="userSpaceOnUse">
<stop stop-color="#D51C35"/>
<stop offset="0.8019" stop-color="#F63039"/>
<stop offset="1" stop-color="#FF363A"/>
</linearGradient>
<clipPath id="clip0">
<rect width="247" height="30" fill="white"/>
</clipPath>
</defs>
</svg>
