<svg width="166" height="166" viewBox="0 0 166 166" fill="none" xmlns="http://www.w3.org/2000/svg">
<path d="M154.29 95.5655C155.059 91.4625 155.315 87.3595 155.315 83C155.315 42.9958 123.004 10.6847 83 10.6847C78.6405 10.6847 74.5376 10.9411 70.4346 11.7105C64.0236 8.12034 56.8434 6.06885 49.1503 6.06885C25.3016 6.06885 6.06879 25.3017 6.06879 49.1503C6.06879 56.8434 8.12029 64.2801 11.7104 70.4346C10.9411 74.5376 10.6847 78.6406 10.6847 83C10.6847 123.004 42.9958 155.315 83 155.315C87.3594 155.315 91.4624 155.059 95.5654 154.29C101.976 157.88 109.157 159.931 116.85 159.931C140.698 159.931 159.931 140.698 159.931 116.85C159.931 109.157 157.88 101.976 154.29 95.5655ZM116.85 148.904C111.208 148.904 105.823 147.366 100.951 144.801L97.6169 142.75L93.7704 143.519C90.4367 144.032 86.8465 144.545 83 144.545C49.1503 144.545 21.7115 117.106 21.7115 83.2565C21.7115 79.6664 21.9679 76.0762 22.7372 72.4861L23.5065 68.6395L21.1986 65.0494C18.3778 60.1771 17.0956 54.7919 17.0956 49.1503C17.0956 31.4562 31.4561 17.0957 49.1503 17.0957C54.7919 17.0957 60.1771 18.6343 65.0494 21.1986L68.3831 23.2501L72.2296 22.4808C75.8197 21.9679 79.4099 21.4551 83 21.4551C116.85 21.4551 144.289 48.8939 144.289 82.7436C144.289 86.3337 144.032 89.9239 143.263 93.514L142.493 97.3606L144.545 100.694C147.366 105.567 148.648 110.952 148.648 116.593C148.904 134.544 134.544 148.904 116.85 148.904Z" fill="white" fill-opacity="0.75"/>
<path d="M96.0783 76.0763L79.9227 72.4862C73.7682 70.9476 66.8444 69.1525 66.8444 63.2545C66.8444 57.3564 71.7167 53.2534 80.692 53.2534C98.8991 53.2534 97.3605 65.8189 106.336 65.8189C110.952 65.8189 115.055 63.2545 115.055 58.3821C115.055 47.0989 97.104 38.6365 81.7178 38.6365C65.3058 38.6365 47.8681 45.3038 47.8681 64.2802C47.8681 73.2555 50.9453 83.0002 68.6395 87.616L90.6931 93.2576C97.3605 94.7963 99.412 98.6428 99.412 101.976C99.412 107.618 93.5139 113.773 83.5129 113.773C63.7672 113.773 66.588 98.1299 56.0741 98.1299C51.4582 98.1299 47.6116 101.464 47.6116 106.08C47.6116 115.311 58.8949 127.877 83.5129 127.877C107.105 127.877 118.901 116.081 118.901 100.694C118.645 90.4368 114.029 80.1793 96.0783 76.0763Z" fill="white" fill-opacity="0.75"/>
</svg>
